<?xml version="1.0" encoding="UTF-8"?>
<svg width="20px" height="20px" viewBox="0 0 20 20" version="1.1" xmlns="http://www.w3.org/2000/svg" xmlns:xlink="http://www.w3.org/1999/xlink">
    <title>60BCBD95-3735-4FD6-86D3-953BA4488179</title>
    <defs>
        <path d="M21.852485,19.6350649 L18.3082023,16.0913876 C18.1482297,15.9314422 17.9313779,15.8425837 17.7038612,15.8425837 L17.1244048,15.8425837 C18.1055703,14.5879016 18.6885817,13.0097744 18.6885817,11.293028 C18.6885817,7.20909091 15.3789256,3.9 11.2942909,3.9 C7.20965614,3.9 3.9,7.20909091 3.9,11.293028 C3.9,15.3769651 7.20965614,18.686056 11.2942909,18.686056 C13.0113305,18.686056 14.5897272,18.1031442 15.8446237,17.1221463 L15.8446237,17.7015038 C15.8446237,17.9289815 15.9334974,18.1457963 16.09347,18.3057416 L19.6377527,21.849419 C19.9719178,22.183527 20.5122698,22.183527 20.8428799,21.849419 L21.84893,20.8435407 C22.1830951,20.5094327 22.1830951,19.9691729 21.852485,19.6350649 Z M11.2942909,15.8425837 C8.78094295,15.8425837 6.74395802,13.809501 6.74395802,11.293028 C6.74395802,8.78010936 8.777388,6.74347232 11.2942909,6.74347232 C13.8076387,6.74347232 15.8446237,8.77655502 15.8446237,11.293028 C15.8446237,13.8059467 13.8111937,15.8425837 11.2942909,15.8425837 Z" id="path-1"></path>
    </defs>
    <g id="Page-1" stroke="none" stroke-width="1" fill="none" fill-rule="evenodd">
        <g id="122-FE-TASK-Audit-list" transform="translate(-291.000000, -147.000000)">
            <g id="drop/checkbox-search" transform="translate(270.000000, 125.000000)">
                <g id="drop-w-search">
                    <g id="search/inactive" transform="translate(12.000000, 13.000000)">
                        <g id="icon/search" transform="translate(6.000000, 6.000000)">
                            <mask id="mask-2" fill="white">
                                <use xlink:href="#path-1"></use>
                            </mask>
                            <use id="icn-search" fill="#9B9B9B" fill-rule="evenodd" xlink:href="#path-1"></use>
                        </g>
                    </g>
                </g>
            </g>
        </g>
    </g>
</svg>